<svg height="512" viewBox="0 0 60 60" width="512" xmlns="http://www.w3.org/2000/svg"><g id="Page-1" fill="none" fill-rule="evenodd"><g id="055---Daily-Pills" fill-rule="nonzero"><path id="Shape" d="m59 46v10c0 1.6568542-1.3431458 3-3 3h-9v-14h11c.5522847 0 1 .4477153 1 1z" fill="#02a9f4"/><path id="Shape" d="m58 45h-3c.5522847 0 1 .4477153 1 1v10c0 1.6568542-1.3431458 3-3 3h3c1.6568542 0 3-1.3431458 3-3v-10c0-.5522847-.4477153-1-1-1z" fill="#0377bc"/><path id="Rectangle-path" d="m37 45h10v14h-10z" fill="#3f51b5"/><path id="Rectangle-path" d="m44 45h3v14h-3z" fill="#283593"/><path id="Rectangle-path" d="m23 45h14v14h-14z" fill="#02a9f4"/><path id="Rectangle-path" d="m34 45h3v14h-3z" fill="#0377bc"/><path id="Rectangle-path" d="m13 45h10v14h-10z" fill="#3f51b5"/><path id="Rectangle-path" d="m20 45h3v14h-3z" fill="#283593"/><path id="Shape" d="m13 45v14h-9c-1.65685425 0-3-1.3431458-3-3v-10c0-.5522847.44771525-1 1-1z" fill="#02a9f4"/><path id="Rectangle-path" d="m10 45h3v14h-3z" fill="#0377bc"/><path id="Shape" d="m23 23h-18c-2.209139 0-4-1.790861-4-4v-14c0-2.209139 1.790861-4 4-4h18c2.209139 0 4 1.790861 4 4 0 1.1045695.8954305 2 2 2h2v10h-2c-1.1045695 0-2 .8954305-2 2 0 2.209139-1.790861 4-4 4z" fill="#02a9f4"/><path id="Shape" d="m29 7c-1.1045695 0-2-.8954305-2-2 0-2.209139-1.790861-4-4-4h-3c2.209139 0 4 1.790861 4 4 0 1.1045695.8954305 2 2 2h2v10h-2c-1.1045695 0-2 .8954305-2 2 0 2.209139-1.790861 4-4 4h3c2.209139 0 4-1.790861 4-4 0-1.1045695.8954305-2 2-2h2v-10z" fill="#0377bc"/><rect id="Rectangle-path" fill="#3f51b5" height="4" rx="2" transform="matrix(0 1 -1 0 45 -21)" width="14" x="26" y="10"/><path id="Rectangle-path" d="m3 3h22v18h-22z" fill="#ffdc00" transform="matrix(0 1 -1 0 26 -2)"/><path id="Shape" d="m19 12c0 1.6568542-1.3431458 3-3 3h-2v-6h2c1.6568542 0 3 1.3431458 3 3z" fill="#f5f5f5"/><path id="Shape" d="m14 9v6h-2c-1.6568542 0-3-1.3431458-3-3s1.3431458-3 3-3z" fill="#f44335"/><path id="Shape" d="m46.54 13.88-4.25 4.24-1.41-1.41c-.7591894-.7574031-1.0566396-1.862295-.780304-2.8984739.2763356-1.0361788 1.084475-1.8462242 2.12-2.125 1.035525-.2787757 2.1411146.0160708 2.900304.7734739z" fill="#f5f5f5"/><path id="Shape" d="m47.95 19.54c-.5617198.5632738-1.3245087.8798486-2.12.8798486s-1.5582802-.3165748-2.12-.8798486l-1.42-1.42 4.25-4.24 1.41 1.41c1.1698661 1.1751514 1.1698661 3.0748486 0 4.25z" fill="#f44335"/><path id="Shape" d="m47.95 15.29-1.41-1.41-1.511 1.507c1.088154 1.1828438 1.0533515 3.0123955-.079 4.153-.1863902.178926-.3947188.3334923-.62.46.4537279.2709606.9715379.4159474 1.5.42 1.2145888-.0019029 2.3086045-.7347894 2.7724899-1.8573044.4638853-1.122515.2064149-2.4139103-.6524899-3.2726956z" fill="#c81e1e"/><path id="Shape" d="m55 30v2h-6v-2c0-1.6568542 1.3431458-3 3-3s3 1.3431458 3 3z" fill="#f5f5f5"/><path id="Shape" d="m52 27c-.5279736.0027317-1.0457023.14597-1.5.415.9268768.5308381 1.4990459 1.516876 1.5 2.585v2h3v-2c0-1.6568542-1.3431458-3-3-3z" fill="#cfd8dc"/><path id="Shape" d="m55 32v2c0 1.6568542-1.3431458 3-3 3s-3-1.3431458-3-3v-2z" fill="#f44335"/><path id="Shape" d="m52 32v2c-.0017261 1.0676546-.5737353 2.0530357-1.5 2.584.4539503.2699637.9718471.4135937 1.5.416 1.6568542 0 3-1.3431458 3-3v-2z" fill="#c81e1e"/><g fill="#000"><path id="Shape" d="m58 44h-56c-1.1045695 0-2 .8954305-2 2v10c0 2.209139 1.790861 4 4 4h52c2.209139 0 4-1.790861 4-4v-10c0-1.1045695-.8954305-2-2-2zm-34 2h12v12h-12zm-2 12h-8v-12h8zm16-12h8v12h-8zm-36 10v-10h10v12h-8c-1.1045695 0-2-.8954305-2-2zm56 0c0 1.1045695-.8954305 2-2 2h-8v-12h10z"/><path id="Shape" d="m9.383 48.076c-.37357967-.1568055-.8049585-.0709255-1.09.217l-1.293 1.293-1.293-1.293c-.28599425-.2859079-.71603662-.3714219-1.08965456-.216678s-.61725909.5192821-.61734544.923678v6c0 .5522847.44771525 1 1 1s1-.4477153 1-1v-3.586l.293.293c.39049985.3903819 1.02350015.3903819 1.414 0l.293-.293v3.586c0 .5522847.44771525 1 1 1s1-.4477153 1-1v-6c.0001018-.4044291-.24340926-.7691037-.617-.924z"/><path id="Shape" d="m32 48c-.5522847 0-1 .4477153-1 1v2.7l-.168-.252c-.1961648-.2622542-.5044975-.4166681-.832-.4166681s-.6358352.1544139-.832.4166681l-.168.252v-2.7c0-.5522847-.4477153-1-1-1s-1 .4477153-1 1v6c-.0000989.4406919.2883025.8294988.7100651.9572708s.8774498-.0356151 1.1219349-.4022708l1.168-1.755 1.168 1.752c.2441763.3661979.6990772.5296901 1.1205023.4027105s.7102786-.5145725.7114977-.9547105v-6c0-.5522847-.4477153-1-1-1z"/><path id="Shape" d="m17 50v5c0 .5522847.4477153 1 1 1s1-.4477153 1-1v-5c.5522847 0 1-.4477153 1-1s-.4477153-1-1-1h-2c-.5522847 0-1 .4477153-1 1s.4477153 1 1 1z"/><path id="Shape" d="m43 48h-2c-.5522847 0-1 .4477153-1 1s.4477153 1 1 1v5c0 .5522847.4477153 1 1 1s1-.4477153 1-1v-5c.5522847 0 1-.4477153 1-1s-.4477153-1-1-1z"/><path id="Shape" d="m52 56c.5522847 0 1-.4477153 1-1v-1h1c.5522847 0 1-.4477153 1-1s-.4477153-1-1-1h-1v-2h2c.5522847 0 1-.4477153 1-1s-.4477153-1-1-1h-3c-.5522847 0-1 .4477153-1 1v6c0 .5522847.4477153 1 1 1z"/><path id="Shape" d="m5 24h18c2.7600532-.0033061 4.9966939-2.2399468 5-5 0-.5522847.4477153-1 1-1h1.184c.4848523 1.3765475 1.8918441 2.2026937 3.330178 1.9553873s2.4885874-1.49595 2.485822-2.9553873v-10c.0027654-1.45943726-1.0474881-2.70808095-2.485822-2.95538732-1.4383339-.24730638-2.8453257.57883984-3.330178 1.95538732h-1.184c-.5522847 0-1-.44771525-1-1-.0033061-2.76005315-2.2399468-4.99669388-5-5h-18c-2.76005315.00330612-4.99669388 2.23994685-5 5v14c.00330612 2.7600532 2.23994685 4.9966939 5 5zm28-18c.5522847 0 1 .44771525 1 1v10c0 .5522847-.4477153 1-1 1s-1-.4477153-1-1v-10c0-.55228475.4477153-1 1-1zm-7-1c0 1.65685425 1.3431458 3 3 3h1v8h-1c-1.6568542 0-3 1.3431458-3 3-.0052514 1.2667854-.8056491 2.3937454-2 2.816v-19.632c1.1943509.42225455 1.9947486 1.54921457 2 2.816zm-4-3v20h-16v-20zm-20 3c.00525139-1.26678543.80564913-2.39374545 2-2.816v19.632c-1.19435087-.4222546-1.99474861-1.5492146-2-2.816z"/><path id="Shape" d="m12 16h4c2.209139 0 4-1.790861 4-4s-1.790861-4-4-4h-4c-2.209139 0-4 1.790861-4 4s1.790861 4 4 4zm6-4c0 1.1045695-.8954305 2-2 2h-1v-4h1c1.1045695 0 2 .8954305 2 2zm-6-2h1v4h-1c-1.1045695 0-2-.8954305-2-2s.8954305-2 2-2z"/><path id="Shape" d="m47.244 13.173-1.414-1.413c-1.5821292-1.5121388-4.0738708-1.5121388-5.656 0-1.5615278 1.5619994-1.5615278 4.0940006 0 5.656l2.826 2.826c1.006495 1.0294604 2.488579 1.4385999 3.8806638 1.0712838 1.3920847-.3673161 2.4793717-1.4544109 2.8469339-2.8464307s-.0413152-2.8741761-1.0705977-3.8808531zm-5.658 0c.7809997-.7807639 2.0470003-.7807639 2.828 0l.707.707-2.828 2.828-.707-.708c-.7807639-.7809997-.7807639-2.0470003 0-2.828zm5.657 5.656c-.375096.375248-.8839266.5860729-1.4145.5860729s-1.039404-.2108249-1.4145-.5860729l-.707-.707 2.829-2.828.707.707c.7800976.7808851.7800976 2.0461149 0 2.827z"/><path id="Shape" d="m48 34c0 2.209139 1.790861 4 4 4s4-1.790861 4-4v-4c0-2.209139-1.790861-4-4-4s-4 1.790861-4 4zm4 2c-1.1045695 0-2-.8954305-2-2v-1h4v1c0 1.1045695-.8954305 2-2 2zm0-8c1.1045695 0 2 .8954305 2 2v1h-4v-1c0-1.1045695.8954305-2 2-2z"/><path id="Shape" d="m9 6h10c.5522847 0 1-.44771525 1-1s-.4477153-1-1-1h-10c-.55228475 0-1 .44771525-1 1s.44771525 1 1 1z"/></g></g></g></svg>