<svg height="512" viewBox="0 0 64 64" width="512" xmlns="http://www.w3.org/2000/svg"><g id="thermometer-coronavirus-tempurature-covid19-virus"><path d="m58.58 19.56-20.78 20.79a28.072 28.072 0 0 1 -10.95 6.76l-.19.06a27.987 27.987 0 0 0 -10.94 6.77l-3.81 3.81-5.66-5.66 3.81-3.81a27.987 27.987 0 0 0 6.77-10.94l.06-.19a28.072 28.072 0 0 1 6.76-10.95l20.79-20.78z" fill="#9bc9ff"/><rect fill="#ffcd00" height="8" rx="2" transform="matrix(.707 -.707 .707 .707 -11.78 32.611)" width="17" x="24.975" y="26.525"/><rect fill="#ffcd00" height="8" rx="2" transform="matrix(.707 -.707 .707 .707 .241 37.59)" width="9" x="40.996" y="14.504"/><path d="m3.423 54.92a4 4 0 0 0 5.657 5.657l2.828-2.828-5.657-5.657z" fill="#006df0"/><path d="m52.92 5.423a6 6 0 0 0 -8.485 0l14.142 14.142a6 6 0 0 0 0-8.485z" fill="#004fac"/><path d="m56.58 17.56-20.78 20.79a28.072 28.072 0 0 1 -10.95 6.76l-.19.06a27.987 27.987 0 0 0 -10.94 6.77l-3.81 3.81 2 2 3.81-3.81a27.987 27.987 0 0 1 10.94-6.77l.19-.06a28.072 28.072 0 0 0 10.95-6.76l20.78-20.79z" fill="#57a4ff"/><path d="m9.908 55.749-2.828 2.828a3.991 3.991 0 0 1 -4.466.809 3.948 3.948 0 0 0 .809 1.191 4 4 0 0 0 5.657 0l2.828-2.828z" fill="#005ece"/><path d="m58.577 11.08-2-2a6 6 0 0 1 0 8.485l2 2a6 6 0 0 0 0-8.485z" fill="#00479b"/><g fill="#231f20"><path d="m38.778 22.394a3 3 0 0 0 -4.242 0l-9.193 9.191a3 3 0 0 0 0 4.243l2.828 2.829a3 3 0 0 0 4.243 0l9.192-9.193a3 3 0 0 0 0-4.242zm1.414 5.656-9.192 9.193a1.023 1.023 0 0 1 -1.414 0l-2.829-2.829a1 1 0 0 1 0-1.414l9.193-9.192a1 1 0 0 1 1.414 0l2.828 2.828a1 1 0 0 1 0 1.414z"/><path d="m40.192 16.737a3 3 0 0 0 0 4.242l2.829 2.829a3 3 0 0 0 4.242 0l3.537-3.536a3 3 0 0 0 0-4.243l-2.829-2.829a3 3 0 0 0 -4.243 0zm5.657-2.414a1 1 0 0 1 .708.292l2.828 2.828a1 1 0 0 1 0 1.415l-3.536 3.536a1 1 0 0 1 -1.414 0l-2.829-2.829a1 1 0 0 1 0-1.414l3.536-3.536a1 1 0 0 1 .707-.292z"/><path d="m59.28 10.37-5.65-5.65a7.007 7.007 0 0 0 -9.9 0l-20.78 20.78a29.086 29.086 0 0 0 -7.01 11.33l-.06.19a27.142 27.142 0 0 1 -6.52 10.55l-3.82 3.81-2.82 2.83a5 5 0 0 0 0 7.07 4.985 4.985 0 0 0 7.07 0l2.83-2.82 3.81-3.82a27.142 27.142 0 0 1 10.55-6.52l.19-.06a29.086 29.086 0 0 0 11.33-7.01l20.78-20.78a7.007 7.007 0 0 0 0-9.9zm-50.91 49.5a3 3 0 0 1 -4.24-4.24l2.12-2.12 4.24 4.24zm28.72-20.23a27.134 27.134 0 0 1 -10.56 6.52l-.18.06a29.2 29.2 0 0 0 -11.34 7.01l-3.1 3.1-4.24-4.24 3.1-3.1a29.056 29.056 0 0 0 7-11.34l.07-.18a27.134 27.134 0 0 1 6.52-10.56l20.08-20.07 12.72 12.72zm21.42-21.56-12.59-12.59a5.005 5.005 0 0 1 6.29.64l5.66 5.66a5.005 5.005 0 0 1 .64 6.29z"/></g></g></svg>