<svg id="Capa_1" enable-background="new 0 0 512 512" height="512" viewBox="0 0 512 512" width="512" xmlns="http://www.w3.org/2000/svg"><g><g><g><g><g><g><g><circle cx="256" cy="256" fill="#f1cc30" r="256"/></g></g></g></g></g></g><path d="m256.41 512c141.196-.222 255.59-114.752 255.59-256 0-9.093-.474-18.076-1.399-26.924l-116.683-116.682-147.615-55.364-115.152 54.545-56.662 218.503z" fill="#e9a226"/><g><path d="m374.172 420.562h-118.172v-30h118.172c15.18 0 27.529-12.35 27.529-27.53v-141.905c0-80.34-65.361-145.701-145.701-145.701s-145.701 65.361-145.701 145.701v86.258h-30v-86.258c0-96.882 78.819-175.701 175.701-175.701s175.701 78.819 175.701 175.701v141.905c0 31.722-25.807 57.53-57.529 57.53z" fill="#717687"/></g><g fill="#656977"><path d="m80.299 291.885h30v15.5h-30z"/><path d="m401.701 291.885v71.147c0 15.18-12.35 27.53-27.529 27.53h-118.172v30h118.172c31.722 0 57.529-25.808 57.529-57.53v-71.147z"/></g><g><g><circle cx="112.686" cy="293.792" fill="#e06a24" r="52.686"/></g><g><path d="m134.194 370.021c-20.576 0-37.256-16.68-37.256-37.256v-77.947c0-20.576 16.68-37.256 37.256-37.256 20.576 0 37.256 16.68 37.256 37.256v77.947c0 20.576-16.68 37.256-37.256 37.256z" fill="#656977"/></g><g><circle cx="399.314" cy="293.792" fill="#e06a24" r="52.686"/></g><g><path d="m60.048 291.885c-.023.634-.048 1.267-.048 1.906 0 29.098 23.588 52.686 52.686 52.686s52.686-23.588 52.686-52.686c0-.639-.026-1.273-.048-1.906z" fill="#d24611"/></g><g><path d="m346.676 291.885c-.023.634-.048 1.267-.048 1.906 0 29.098 23.588 52.686 52.686 52.686s52.686-23.588 52.686-52.686c0-.639-.026-1.273-.048-1.906z" fill="#d24611"/></g><g><path d="m377.806 217.563c20.576 0 37.256 16.68 37.256 37.256v77.947c0 20.576-16.68 37.256-37.256 37.256-20.576 0-37.256-16.68-37.256-37.256v-77.947c0-20.576 16.68-37.256 37.256-37.256z" fill="#656977"/></g><g><path d="m96.938 291.885v40.88c0 20.576 16.68 37.256 37.256 37.256 20.576 0 37.256-16.68 37.256-37.256v-40.88z" fill="#464b52"/></g><g><path d="m340.55 291.885v40.88c0 20.576 16.68 37.256 37.256 37.256 20.576 0 37.256-16.68 37.256-37.256v-40.88z" fill="#464b52"/></g></g><g><path d="m275.134 433.419h-38.268c-15.378 0-27.845-12.467-27.845-27.845 0-15.378 12.467-27.845 27.845-27.845h38.268c15.378 0 27.845 12.467 27.845 27.845 0 15.378-12.467 27.845-27.845 27.845z" fill="#464b52"/></g></g></svg>