<?xml version="1.0" encoding="iso-8859-1"?>
<!-- Generator: Adobe Illustrator 19.0.0, SVG Export Plug-In . SVG Version: 6.00 Build 0)  -->
<svg version="1.1" id="Capa_1" xmlns="http://www.w3.org/2000/svg" xmlns:xlink="http://www.w3.org/1999/xlink" x="0px" y="0px"
	 viewBox="0 0 508.013 508.013" style="enable-background:new 0 0 508.013 508.013;" xml:space="preserve">
<g>
	<g>
		<path d="M472.212,35.607c-22.7-22.7-53-35.2-85.5-35.2c-0.5,0-1.1,0-1.6,0c-33,0.4-64.2,13.6-87.8,37.2l-259.8,260
			c-23.6,23.6-36.8,54.8-37.3,87.8c-0.4,33.1,12.1,64,35.2,87.1c23.4,23.4,54.4,35.1,85.5,35.1c32.2,0,64.6-12.4,89.3-37.2
			l259.9-259.9c23.7-23.6,36.9-54.8,37.3-87.8C507.812,89.607,495.312,58.707,472.212,35.607z M198.712,458.907
			c-20.6,20.6-47.7,32.1-76.4,32.5c-28.5,0.3-55.4-10.4-75.4-30.4s-30.8-46.7-30.4-75.4s11.9-55.9,32.5-76.4l60.8-60.8l149.8,149.6
			L198.712,458.907z M271.112,386.507l-149.8-149.8l115.2-115.2l149.7,149.8L271.112,386.507z M458.612,198.907l-60.8,60.9
			l-149.7-149.8l60.8-60.8c20.6-20.6,47.7-32.1,76.4-32.5c0.5,0,0.9,0,1.4,0c28.1,0,54.3,10.8,74,30.4c20,20,30.8,46.7,30.4,75.4
			C490.712,151.207,479.212,178.407,458.612,198.907z"/>
	</g>
</g>
<g>
	<g>
		<path d="M210.212,37.707c-48.7-48.8-127.2-49.7-174.8-2.1c-64,64-27.4,149.7,2.1,174.9l26.3,26.3l11.5-11.5l-26.3-26.4
			c-25.2-21.3-57.3-96.6-2.1-151.8c41.3-41.3,109.4-40.3,151.8,2.1l26.3,26.3l11.5-11.5L210.212,37.707z"/>
	</g>
</g>
<g>
	<g>
		<path d="M470.212,297.607l-26.3-26.3l-11.5,11.5l26.3,26.3c53.4,53.4,29.5,124.4,2.1,151.8c-30.5,30.5-98.2,51.6-151.8-2.1
			l-26.3-26.3l-11.5,11.5l26.3,26.3c32.1,36.7,116.8,60.2,174.9,2.1C508.312,436.307,531.112,358.607,470.212,297.607z"/>
	</g>
</g>
<g>
	<g>
		<path d="M98.312,385.307c-13.3,0-24.2,10.8-24.2,24.2s10.8,24.2,24.2,24.2c13.4,0,24.2-10.8,24.2-24.2
			S111.712,385.307,98.312,385.307z M98.312,417.607c-4.5,0-8.1-3.6-8.1-8.1s3.6-8.1,8.1-8.1s8.1,3.6,8.1,8.1
			S102.812,417.607,98.312,417.607z"/>
	</g>
</g>
<g>
	<g>
		<path d="M178.912,374.007c-13.3,0-24.2,10.8-24.2,24.2s10.9,24.1,24.2,24.1s24.2-10.8,24.2-24.2S192.312,374.007,178.912,374.007z
			 M178.912,406.207c-4.5,0-8.1-3.6-8.1-8.1s3.6-8.1,8.1-8.1s8.1,3.6,8.1,8.1S183.412,406.207,178.912,406.207z"/>
	</g>
</g>
<g>
	<g>
		<path d="M109.912,304.707c-13.4,0-24.2,10.9-24.2,24.2s10.8,24.2,24.2,24.2c13.4,0,24.2-10.8,24.2-24.2
			C134.112,315.607,123.312,304.707,109.912,304.707z M109.812,337.007c-4.5,0-8.1-3.6-8.1-8.1s3.6-8.1,8.1-8.1s8.1,3.6,8.1,8.1
			S114.312,337.007,109.812,337.007z"/>
	</g>
</g>
<g>
	<g>
		<path d="M397.812,155.107c-13.3,0-24.2,10.8-24.2,24.2c0,13.3,10.8,24.2,24.2,24.2s24.2-10.8,24.2-24.2
			S411.112,155.107,397.812,155.107z M397.812,187.407c-4.5,0-8.1-3.6-8.1-8.1s3.6-8.1,8.1-8.1s8.1,3.6,8.1,8.1
			S402.312,187.407,397.812,187.407z"/>
	</g>
</g>
<g>
	<g>
		<path d="M409.312,74.407c-13.3,0-24.2,10.8-24.2,24.2c0,13.4,10.8,24.2,24.2,24.2c13.3,0,24.2-10.8,24.2-24.2
			C433.512,85.207,422.712,74.407,409.312,74.407z M409.312,106.707c-4.5,0-8.1-3.6-8.1-8.1s3.6-8.1,8.1-8.1s8.1,3.6,8.1,8.1
			S413.812,106.707,409.312,106.707z"/>
	</g>
</g>
<g>
	<g>
		<path d="M328.712,86.007c-13.3,0-24.2,10.8-24.2,24.2c0,13.3,10.8,24.2,24.2,24.2c13.3,0,24.2-10.8,24.2-24.2
			C352.812,96.807,342.012,86.007,328.712,86.007z M328.712,118.307c-4.5,0-8.1-3.6-8.1-8.1s3.6-8.1,8.1-8.1s8.1,3.6,8.1,8.1
			C336.812,114.707,333.212,118.307,328.712,118.307z"/>
	</g>
</g>
<g>
</g>
<g>
</g>
<g>
</g>
<g>
</g>
<g>
</g>
<g>
</g>
<g>
</g>
<g>
</g>
<g>
</g>
<g>
</g>
<g>
</g>
<g>
</g>
<g>
</g>
<g>
</g>
<g>
</g>
</svg>
