<svg id="Layer_1" enable-background="new 0 0 512.003 512.003" height="512" viewBox="0 0 512.003 512.003" width="512" xmlns="http://www.w3.org/2000/svg"><g><g><circle cx="256.01" cy="256.012" fill="#b1d7fb" r="147.071"/><path d="m152.654 256.012c0-73.797 54.355-134.894 125.214-145.452-7.132-1.063-14.43-1.619-21.858-1.619-81.225 0-147.071 65.846-147.071 147.071s65.846 147.071 147.071 147.071c7.428 0 14.725-.556 21.858-1.619-70.859-10.558-125.214-71.654-125.214-145.452z" fill="#9dc6fb"/><circle cx="256.039" cy="256.012" fill="#9dc6fb" r="115.544"/><path d="m190.436 256.012c0-55.238 38.766-101.415 90.573-112.83-8.042-1.772-16.395-2.714-24.97-2.714-63.813 0-115.544 51.731-115.544 115.544s51.731 115.544 115.544 115.544c8.575 0 16.928-.942 24.97-2.714-51.808-11.414-90.573-57.591-90.573-112.83z" fill="#80b4fb"/><path d="m299.067 237.778h-86.055c-6.682 0-12.149 5.467-12.149 12.149v63.433c0 6.682 5.467 12.149 12.149 12.149h86.055c6.682 0 12.149-5.467 12.149-12.149v-63.433c0-6.682-5.468-12.149-12.149-12.149z" fill="#ffe181"/><path d="m232.672 313.36v-63.433c0-6.682 5.467-12.149 12.149-12.149h-31.809c-6.682 0-12.149 5.467-12.149 12.149v63.433c0 6.682 5.467 12.149 12.149 12.149h31.809c-6.682 0-12.149-5.467-12.149-12.149z" fill="#fec458"/><g><g><circle cx="256.039" cy="275.676" fill="#fec458" r="14.41"/></g></g><path d="m257.524 275.676c0-5.02 2.57-9.435 6.462-12.015-2.279-1.51-5.008-2.394-7.947-2.394-7.958 0-14.409 6.451-14.409 14.41 0 7.958 6.451 14.41 14.409 14.41 2.938 0 5.668-.884 7.947-2.394-3.893-2.581-6.462-6.997-6.462-12.017z" fill="#f9ab49"/><g fill="#ffe181"><ellipse cx="256.01" cy="31.103" rx="22.47" ry="23.516"/><ellipse cx="256.01" cy="480.922" rx="22.47" ry="23.516"/><ellipse cx="61.232" cy="143.558" rx="22.47" ry="23.516" transform="matrix(.5 -.866 .866 .5 -93.708 124.808)"/><ellipse cx="450.788" cy="368.467" rx="22.47" ry="23.516" transform="matrix(.5 -.866 .866 .5 -93.708 574.627)"/><ellipse cx="61.232" cy="368.467" rx="23.516" ry="22.47" transform="matrix(.866 -.5 .5 .866 -176.03 79.982)"/><ellipse cx="450.788" cy="143.558" rx="23.516" ry="22.47" transform="matrix(.866 -.5 .5 .866 -11.385 244.627)"/></g><path d="m255.397 31.103c0-8.835 4.658-16.528 11.542-20.547-3.235-1.889-6.961-2.969-10.929-2.969-12.41 0-22.47 10.528-22.47 23.516s10.06 23.516 22.47 23.516c3.968 0 7.693-1.08 10.929-2.969-6.884-4.02-11.542-11.713-11.542-20.547z" fill="#fec458"/><path d="m255.397 480.922c0-8.835 4.658-16.528 11.542-20.547-3.235-1.889-6.961-2.969-10.929-2.969-12.41 0-22.47 10.528-22.47 23.516s10.06 23.516 22.47 23.516c3.968 0 7.693-1.08 10.929-2.969-6.884-4.019-11.542-11.712-11.542-20.547z" fill="#fec458"/><path d="m71.855 163.017c-11.248-6.494-15.335-20.471-9.13-31.218 2.103-3.643 5.121-6.445 8.627-8.307-11.052-5.653-24.483-2.088-30.485 8.307-6.205 10.747-2.117 24.724 9.13 31.218 7.435 4.293 16.135 4.238 22.973.605-.374-.191-.746-.392-1.115-.605z" fill="#fec458"/><path d="m461.41 387.927c-11.248-6.494-15.335-20.47-9.13-31.218 2.103-3.643 5.121-6.445 8.628-8.307-11.052-5.653-24.483-2.088-30.485 8.307-6.205 10.747-2.117 24.724 9.13 31.218 7.435 4.293 16.135 4.238 22.973.605-.375-.191-.747-.392-1.116-.605z" fill="#fec458"/><path d="m62.725 380.225c-6.205-10.747-2.117-24.724 9.13-31.218.369-.213.741-.414 1.115-.605-6.838-3.632-15.538-3.687-22.973.605-11.248 6.494-15.335 20.471-9.13 31.218 6.002 10.395 19.434 13.96 30.485 8.307-3.506-1.862-6.524-4.663-8.627-8.307z" fill="#fec458"/><path d="m452.28 155.315c-6.205-10.747-2.117-24.724 9.13-31.218.369-.213.741-.414 1.115-.605-6.838-3.632-15.538-3.687-22.973.605-11.248 6.494-15.335 20.471-9.13 31.218 6.002 10.395 19.434 13.96 30.485 8.307-3.506-1.862-6.524-4.663-8.627-8.307z" fill="#fec458"/></g><g><path d="m256.002 310.256c4.143 0 7.5-3.358 7.5-7.5v-6.485c8.402-3.07 14.417-11.143 14.417-20.595 0-12.085-9.832-21.917-21.917-21.917-12.086 0-21.918 9.832-21.918 21.917 0 9.452 6.015 17.526 14.418 20.595v6.485c0 4.142 3.358 7.5 7.5 7.5zm0-41.497c3.814 0 6.917 3.103 6.917 6.917s-3.103 6.917-6.917 6.917-6.918-3.103-6.918-6.917 3.104-6.917 6.918-6.917z"/><path d="m465.827 169.473c14.61-8.434 20.289-26.905 11.878-41.472-8.301-14.381-27.031-19.007-41.855-10.45-12.598 7.273-18.256 21.667-14.784 34.49l-35.112 20.272c-26.284-40.673-71.126-68.279-122.452-70.743v-40.507c12.912-3.455 22.477-15.613 22.477-30.04 0-17.106-13.447-31.023-29.977-31.023s-29.978 13.917-29.978 31.023c0 14.427 9.565 26.585 22.478 30.04v40.507c-51.327 2.464-96.168 30.07-122.453 70.743l-35.112-20.272c3.45-12.74-2.11-27.174-14.784-34.49-14.815-8.553-33.59-3.865-41.855 10.449-8.409 14.564-2.739 33.035 11.878 41.473 12.633 7.294 27.921 4.948 37.261-4.442l35.09 20.259c-10.95 21.203-17.142 45.247-17.142 70.711s6.191 49.507 17.142 70.711l-35.097 20.264c-16.365-16.377-45.229-8.555-51.815 13.962-5.593 19.123 8.528 37.808 28.685 37.808 13.431 0 26.363-8.844 30.416-22.701 1.573-5.377 1.626-10.897.222-16.082l35.112-20.272c26.284 40.673 71.126 68.279 122.453 70.743v40.507c-12.912 3.455-22.478 15.613-22.478 30.04 0 17.106 13.448 31.023 29.978 31.023s29.977-13.917 29.977-31.023c0-14.427-9.565-26.585-22.477-30.039v-40.507c51.327-2.464 96.168-30.07 122.453-70.743l35.111 20.272c-1.404 5.185-1.351 10.705.222 16.082 7.606 26.003 43.161 30.922 56.417 7.958 8.409-14.564 2.739-33.035-11.878-41.473-12.494-7.214-27.806-5.009-37.254 4.446l-35.097-20.263c10.95-21.203 17.142-45.247 17.142-70.711s-6.191-49.508-17.142-70.711l35.09-20.259c9.3 9.348 24.577 11.763 37.26 4.44zm-22.477-38.931c7.865-4.54 17.344-2.006 21.365 4.959 4.06 7.033 1.412 16.479-6.388 20.982-7.808 4.51-17.312 2.062-21.365-4.959-4.06-7.033-1.412-16.479 6.388-20.982zm-368.309 20.982c-4.057 7.027-13.559 9.465-21.365 4.959-7.8-4.503-10.448-13.95-6.388-20.982 4.127-7.149 13.708-9.378 21.365-4.959 7.801 4.503 10.448 13.949 6.388 20.982zm1.278 220.309c-2.443 8.354-11.379 13.514-19.836 11.452-8.193-1.997-12.84-10.039-10.472-18.137 2.088-7.139 8.881-11.899 16.049-11.899 10.145 0 17.039 9.079 14.259 18.584zm360.643-11.354c4.127-7.149 13.708-9.378 21.365-4.959 7.798 4.502 10.449 13.948 6.388 20.983-6.627 11.477-25.104 8.754-29.03-4.669-1.145-3.914-.691-7.946 1.277-11.355zm-195.937-329.456c0-8.835 6.719-16.023 14.978-16.023 8.258 0 14.977 7.188 14.977 16.023s-6.719 16.023-14.977 16.023c-8.26 0-14.978-7.188-14.978-16.023zm29.954 449.957c0 8.835-6.719 16.023-14.977 16.023-8.259 0-14.978-7.188-14.978-16.023s6.719-16.023 14.978-16.023c8.258 0 14.977 7.188 14.977 16.023zm124.639-224.979c0 76.985-62.632 139.616-139.616 139.616s-139.616-62.631-139.616-139.616 62.632-139.616 139.616-139.616 139.616 62.632 139.616 139.616z"/><path d="m273.502 333.037h25.551c10.839 0 19.656-8.817 19.656-19.656v-63.468c0-10.581-8.41-19.212-18.894-19.617v-13.964c0-24.159-19.654-43.814-43.813-43.814s-43.814 19.655-43.814 43.814v13.964c-10.483.405-18.893 9.036-18.893 19.617v63.468c0 10.838 8.817 19.656 19.655 19.656h25.552c4.143 0 7.5-3.358 7.5-7.5s-3.357-7.5-7.5-7.5h-25.552c-2.523 0-4.655-2.132-4.655-4.656v-63.468c0-2.523 2.132-4.656 4.655-4.656h86.103c2.524 0 4.656 2.132 4.656 4.656v63.468c0 2.524-2.132 4.656-4.656 4.656h-25.551c-4.143 0-7.5 3.358-7.5 7.5s3.358 7.5 7.5 7.5zm11.314-102.78h-57.628v-13.926c0-15.888 12.926-28.814 28.814-28.814s28.813 12.926 28.813 28.814v13.926z"/><path d="m256.002 132.894c-67.882 0-123.108 55.226-123.108 123.108s55.227 123.108 123.108 123.108c29.625 0 58.252-10.675 80.607-30.058 22.128-19.186 36.724-45.616 41.098-74.424.622-4.095-2.194-7.919-6.289-8.541-4.098-.622-7.919 2.194-8.541 6.289-7.94 52.297-53.887 91.734-106.875 91.734-59.611 0-108.108-48.497-108.108-108.108s48.497-108.108 108.108-108.108c52.988 0 98.935 39.437 106.875 91.734.621 4.096 4.442 6.912 8.541 6.289 4.095-.622 6.911-4.446 6.289-8.541-9.105-59.969-60.904-104.482-121.705-104.482z"/></g></g></svg>