<svg height="512" viewBox="0 0 64 64" width="512" xmlns="http://www.w3.org/2000/svg"><g id="Layer_13" data-name="Layer 13"><circle cx="32" cy="24" fill="#4472b0" r="22"/><path d="m7 55 9-1v8l16-16a22 22 0 0 1 -12.27-3.73z" fill="#f7d881"/><path d="m44.27 42.27a22 22 0 0 1 -12.27 3.73l16 16v-8l9 1z" fill="#f7d881"/><circle cx="32" cy="24" fill="#c7e2fb" r="18"/><path d="m45 17.5a16.74 16.74 0 0 0 -1.87-7.63 18 18 0 0 0 -22.49 28.13c13.59-.71 24.36-9.61 24.36-20.5z" fill="#ebf7fe"/><path d="m34 13a3 3 0 0 0 -3-3h-1v4l-4 4h-10.95a17.79 17.79 0 0 0 .84 14h10.11l4 2h12a2 2 0 0 0 2-2v-14h-10z" fill="#fddfb1"/><g fill="#bea785"><path d="m35 29h9v2h-9z"/><path d="m35 25h9v2h-9z"/><path d="m35 21h9v2h-9z"/></g><path d="m6 2 1.24 2.3 2.76.7-2 1.47 1 3.53-3-2.2-3 2.2 1-3.53-2-1.47 2.76-.7z" fill="#f7d881"/><path d="m58 2 1.24 2.3 2.76.7-2 1.47 1 3.53-3-2.2-3 2.2 1-3.53-2-1.47 2.76-.7z" fill="#f7d881"/></g></svg>